<svg width="20" height="20" viewBox="0 0 20 20" fill="none" xmlns="http://www.w3.org/2000/svg">
<path d="M13.1423 2.23828C15.0401 2.23853 16.6732 3.63 16.9656 5.53516L16.99 5.7207L17.7761 13.168C18.0382 15.6498 16.0968 17.7615 13.6707 17.7617H6.32985C3.90516 17.7617 1.96296 15.651 2.2234 13.1699L3.00563 5.72266C3.21546 3.72148 4.89361 2.23834 6.85328 2.23828H13.1423ZM12.4783 5.93945C12.1469 5.93945 11.8777 6.21928 11.8777 6.56445C11.8777 7.56399 11.0598 8.41699 9.99879 8.41699C8.93902 8.41664 8.12184 7.56393 8.12184 6.56445C8.12184 6.2194 7.85344 5.93965 7.52223 5.93945C7.19086 5.93945 6.92164 6.21928 6.92164 6.56445C6.92164 8.30135 8.32237 9.66664 9.99879 9.66699C11.6762 9.66699 13.0779 8.30171 13.0779 6.56445C13.0779 6.21943 12.8095 5.9397 12.4783 5.93945Z" fill="currentColor"/>
</svg>
