<svg width="24" height="24" viewBox="0 0 24 24" fill="none" xmlns="http://www.w3.org/2000/svg">
<path opacity="0.4" d="M14.3364 6H9.25585C8.13416 6 7.26206 6 6.55601 6.05727C5.83812 6.1155 5.25419 6.23506 4.71505 6.49449C3.82628 6.92217 3.04852 7.64308 2.55475 8.49691C2.25599 9.01353 2.09281 9.57794 1.98124 10.2754C1.87171 10.9601 1.80738 11.8069 1.72478 12.8943L1.72309 12.9166C1.58043 14.7945 1.4458 16.8706 1.36717 18.8329C1.36477 18.8927 1.36328 18.93 1.36328 19.0002C1.36338 20.8345 2.89015 22.4236 4.72294 22.4972C4.79314 22.5 4.84983 22.5 4.93884 22.5H4.95172C5.0081 22.5 5.04499 22.5 5.08056 22.4992C5.99918 22.4774 6.85718 22.0359 7.40882 21.301C7.43018 21.2725 7.45155 21.2426 7.48434 21.1967L8.4851 19.7956C8.76537 19.4033 8.85104 19.2915 8.95067 19.2133C9.05068 19.1348 9.16473 19.0761 9.28672 19.0404C9.40826 19.0048 9.54899 19 10.0312 19H13.561C14.0432 19 14.184 19.0048 14.3055 19.0404C14.4275 19.0761 14.5415 19.1348 14.6415 19.2133C14.7412 19.2915 14.8268 19.4033 15.1071 19.7956L16.1078 21.1966C16.1406 21.2425 16.162 21.2725 16.1834 21.301C16.735 22.0359 17.593 22.4774 18.5117 22.4992C18.5472 22.5 18.584 22.5 18.6404 22.5H18.6534C18.7424 22.5 18.7991 22.5 18.8693 22.4972C20.7021 22.4236 22.2288 20.8345 22.2289 19.0002C22.2289 18.9299 22.2274 18.8922 22.225 18.8323C22.1464 16.87 22.0118 14.7945 21.8691 12.9166L21.8674 12.8943C21.7848 11.807 21.7205 10.9601 21.611 10.2754C21.4994 9.57794 21.3362 9.01353 21.0375 8.49691C20.5437 7.64308 19.7659 6.92217 18.8772 6.49449C18.338 6.23506 17.7541 6.1155 17.0362 6.05727C16.3302 6 15.4581 6 14.3364 6Z" fill="currentColor"/>
<path d="M17.5459 2C17.5459 1.58579 17.2101 1.25 16.7959 1.25C16.3817 1.25 16.0459 1.58579 16.0459 2C16.0459 2.69036 15.4863 3.25 14.7959 3.25H13.7959C12.2771 3.25 11.0459 4.48122 11.0459 6V6.5C11.0459 6.91421 11.3817 7.25 11.7959 7.25C12.2101 7.25 12.5459 6.91421 12.5459 6.5V6C12.5459 5.30964 13.1055 4.75 13.7959 4.75H14.7959C16.3147 4.75 17.5459 3.51878 17.5459 2Z" fill="currentColor"/>
<path d="M8.5459 11C8.5459 10.5858 8.21011 10.25 7.7959 10.25C7.38168 10.25 7.0459 10.5858 7.0459 11V12.25H5.7959C5.38168 12.25 5.0459 12.5858 5.0459 13C5.0459 13.4142 5.38168 13.75 5.7959 13.75H7.0459V15C7.0459 15.4142 7.38168 15.75 7.7959 15.75C8.21011 15.75 8.5459 15.4142 8.5459 15V13.75H9.7959C10.2101 13.75 10.5459 13.4142 10.5459 13C10.5459 12.5858 10.2101 12.25 9.7959 12.25H8.5459V11Z" fill="currentColor"/>
<path d="M16.2959 11.5C16.2959 10.9477 16.7436 10.5 17.2959 10.5C17.8482 10.5 18.296 10.9477 18.296 11.5C18.296 12.0523 17.8483 12.5 17.296 12.5C16.7437 12.5 16.2959 12.0523 16.2959 11.5Z" fill="currentColor"/>
<path d="M14.7959 13C14.2436 13 13.7959 13.4477 13.7959 14C13.7959 14.5523 14.2436 15 14.7959 15C15.3482 15 15.796 14.5523 15.796 14C15.796 13.4477 15.3482 13 14.7959 13Z" fill="currentColor"/>
</svg>
